<svg width="20" height="17" viewBox="0 0 20 17" fill="none" xmlns="http://www.w3.org/2000/svg">
<path fill-rule="evenodd" clip-rule="evenodd" d="M9.53735 3.19604L9.46969 3.26371C7.70072 1.49473 4.83264 1.49473 3.06367 3.2637C1.2947 5.03268 1.29469 7.90075 3.06367 9.66973L6.79699 13.403C8.56597 15.172 11.434 15.172 13.203 13.403L16.9364 9.6697C18.7053 7.90073 18.7053 5.03266 16.9364 3.26368C15.1674 1.49471 12.2993 1.49471 10.5303 3.26368L10.0677 3.72635L9.53735 3.19604ZM14.2637 14.4637L17.997 10.7304C20.3518 8.3756 20.3518 4.55778 17.997 2.20302C15.8118 0.0178142 12.3667 -0.139532 10 1.73099C7.63335 -0.139506 4.18821 0.0178459 2.00301 2.20304C-0.35175 4.5578 -0.351753 8.37563 2.00301 10.7304L5.73633 14.4637L5.73635 14.4637C8.09111 16.8185 11.9089 16.8185 14.2637 14.4637L14.2637 14.4637Z" fill="#2D3132"/>
</svg>
